<svg width="196" height="47" viewBox="0 0 196 47" fill="none" xmlns="http://www.w3.org/2000/svg">
<g filter="url(#filter0_d_221_203)">
<g clip-path="url(#clip0_221_203)">
<mask id="path-1-inside-1_221_203" fill="white">
<path d="M1.10275 25.5495C1.046 25.0999 1.36451 24.6893 1.81415 24.6326L188.256 1.10274C188.705 1.04599 189.116 1.3645 189.172 1.81414L191.125 17.2831C191.181 17.7327 190.863 18.1432 190.413 18.2L3.97192 41.7299C3.52227 41.7866 3.11176 41.4681 3.05501 41.0184L1.10275 25.5495Z"/>
</mask>
<path d="M1.10275 25.5495C1.046 25.0999 1.36451 24.6893 1.81415 24.6326L188.256 1.10274C188.705 1.04599 189.116 1.3645 189.172 1.81414L191.125 17.2831C191.181 17.7327 190.863 18.1432 190.413 18.2L3.97192 41.7299C3.52227 41.7866 3.11176 41.4681 3.05501 41.0184L1.10275 25.5495Z" fill="#FAFAFA"/>
<g filter="url(#filter1_i_221_203)">
<rect x="115.796" y="10.2477" width="18.8741" height="17.2329" transform="rotate(-7.19299 115.796 10.2477)" fill="#FCDD86"/>
</g>
<g filter="url(#filter2_i_221_203)">
<rect x="65.318" y="16.6183" width="18.8741" height="17.2329" transform="rotate(-7.19299 65.318 16.6183)" fill="#B6C6FF"/>
</g>
<g filter="url(#filter3_i_221_203)">
<rect x="167.087" y="3.77454" width="18.8741" height="17.2329" transform="rotate(-7.19299 167.087 3.77454)" fill="#F0D8CE"/>
</g>
<g filter="url(#filter4_i_221_203)">
<rect x="141.034" y="7.06238" width="18.8741" height="17.2329" transform="rotate(-7.19299 141.034 7.06238)" fill="#F6C8C5"/>
</g>
<g filter="url(#filter5_i_221_203)">
<rect x="90.5568" y="13.433" width="18.8741" height="17.2329" transform="rotate(-7.19299 90.5568 13.433)" fill="#A3FEF5"/>
</g>
</g>
<path d="M1 24.7354L189.07 0.999989L1 24.7354ZM192.117 17.1579C192.243 18.1555 191.536 19.0662 190.539 19.1921L5.08926 42.5968C4.09167 42.7227 3.18091 42.016 3.05501 41.0184L3.03255 40.8405C3.03255 40.8405 3.39706 40.7945 3.8467 40.7377L190.11 17.2303L192.117 17.1579ZM3.15776 41.8326L1 24.7354L3.15776 41.8326ZM188.256 1.10274C189.253 0.97684 190.164 1.68348 190.29 2.68106L192.117 17.1579C192.243 18.1555 191.536 19.0662 190.539 19.1921L190.11 17.2303L188.18 1.93936C188.124 1.48971 188.078 1.1252 188.078 1.1252L188.256 1.10274Z" fill="black" fill-opacity="0.2" style="mix-blend-mode:multiply" mask="url(#path-1-inside-1_221_203)"/>
</g>
<defs>
<filter id="filter0_d_221_203" x="0.00122571" y="0.00122571" width="195.508" height="46.1126" filterUnits="userSpaceOnUse" color-interpolation-filters="sRGB">
<feFlood flood-opacity="0" result="BackgroundImageFix"/>
<feColorMatrix in="SourceAlpha" type="matrix" values="0 0 0 0 0 0 0 0 0 0 0 0 0 0 0 0 0 0 127 0" result="hardAlpha"/>
<feOffset dx="1.64123" dy="1.64123"/>
<feGaussianBlur stdDeviation="1.32"/>
<feComposite in2="hardAlpha" operator="out"/>
<feColorMatrix type="matrix" values="0 0 0 0 0 0 0 0 0 0 0 0 0 0 0 0 0 0 0.2 0"/>
<feBlend mode="normal" in2="BackgroundImageFix" result="effect1_dropShadow_221_203"/>
<feBlend mode="normal" in="SourceGraphic" in2="effect1_dropShadow_221_203" result="shape"/>
</filter>
<filter id="filter1_i_221_203" x="115.139" y="7.22791" width="21.5398" height="20.1171" filterUnits="userSpaceOnUse" color-interpolation-filters="sRGB">
<feFlood flood-opacity="0" result="BackgroundImageFix"/>
<feBlend mode="normal" in="SourceGraphic" in2="BackgroundImageFix" result="shape"/>
<feColorMatrix in="SourceAlpha" type="matrix" values="0 0 0 0 0 0 0 0 0 0 0 0 0 0 0 0 0 0 127 0" result="hardAlpha"/>
<feOffset dx="-0.820613" dy="-0.820613"/>
<feGaussianBlur stdDeviation="0.328245"/>
<feComposite in2="hardAlpha" operator="arithmetic" k2="-1" k3="1"/>
<feColorMatrix type="matrix" values="0 0 0 0 0 0 0 0 0 0 0 0 0 0 0 0 0 0 0.1 0"/>
<feBlend mode="normal" in2="shape" result="effect1_innerShadow_221_203"/>
</filter>
<filter id="filter2_i_221_203" x="64.6615" y="13.5985" width="21.5398" height="20.1171" filterUnits="userSpaceOnUse" color-interpolation-filters="sRGB">
<feFlood flood-opacity="0" result="BackgroundImageFix"/>
<feBlend mode="normal" in="SourceGraphic" in2="BackgroundImageFix" result="shape"/>
<feColorMatrix in="SourceAlpha" type="matrix" values="0 0 0 0 0 0 0 0 0 0 0 0 0 0 0 0 0 0 127 0" result="hardAlpha"/>
<feOffset dx="-0.820613" dy="-0.820613"/>
<feGaussianBlur stdDeviation="0.328245"/>
<feComposite in2="hardAlpha" operator="arithmetic" k2="-1" k3="1"/>
<feColorMatrix type="matrix" values="0 0 0 0 0 0 0 0 0 0 0 0 0 0 0 0 0 0 0.1 0"/>
<feBlend mode="normal" in2="shape" result="effect1_innerShadow_221_203"/>
</filter>
<filter id="filter3_i_221_203" x="166.431" y="0.754765" width="21.5398" height="20.1171" filterUnits="userSpaceOnUse" color-interpolation-filters="sRGB">
<feFlood flood-opacity="0" result="BackgroundImageFix"/>
<feBlend mode="normal" in="SourceGraphic" in2="BackgroundImageFix" result="shape"/>
<feColorMatrix in="SourceAlpha" type="matrix" values="0 0 0 0 0 0 0 0 0 0 0 0 0 0 0 0 0 0 127 0" result="hardAlpha"/>
<feOffset dx="-0.820613" dy="-0.820613"/>
<feGaussianBlur stdDeviation="0.328245"/>
<feComposite in2="hardAlpha" operator="arithmetic" k2="-1" k3="1"/>
<feColorMatrix type="matrix" values="0 0 0 0 0 0 0 0 0 0 0 0 0 0 0 0 0 0 0.1 0"/>
<feBlend mode="normal" in2="shape" result="effect1_innerShadow_221_203"/>
</filter>
<filter id="filter4_i_221_203" x="140.378" y="4.04261" width="21.5398" height="20.1171" filterUnits="userSpaceOnUse" color-interpolation-filters="sRGB">
<feFlood flood-opacity="0" result="BackgroundImageFix"/>
<feBlend mode="normal" in="SourceGraphic" in2="BackgroundImageFix" result="shape"/>
<feColorMatrix in="SourceAlpha" type="matrix" values="0 0 0 0 0 0 0 0 0 0 0 0 0 0 0 0 0 0 127 0" result="hardAlpha"/>
<feOffset dx="-0.820613" dy="-0.820613"/>
<feGaussianBlur stdDeviation="0.328245"/>
<feComposite in2="hardAlpha" operator="arithmetic" k2="-1" k3="1"/>
<feColorMatrix type="matrix" values="0 0 0 0 0 0 0 0 0 0 0 0 0 0 0 0 0 0 0.1 0"/>
<feBlend mode="normal" in2="shape" result="effect1_innerShadow_221_203"/>
</filter>
<filter id="filter5_i_221_203" x="89.9003" y="10.4132" width="21.5399" height="20.1171" filterUnits="userSpaceOnUse" color-interpolation-filters="sRGB">
<feFlood flood-opacity="0" result="BackgroundImageFix"/>
<feBlend mode="normal" in="SourceGraphic" in2="BackgroundImageFix" result="shape"/>
<feColorMatrix in="SourceAlpha" type="matrix" values="0 0 0 0 0 0 0 0 0 0 0 0 0 0 0 0 0 0 127 0" result="hardAlpha"/>
<feOffset dx="-0.820613" dy="-0.820613"/>
<feGaussianBlur stdDeviation="0.328245"/>
<feComposite in2="hardAlpha" operator="arithmetic" k2="-1" k3="1"/>
<feColorMatrix type="matrix" values="0 0 0 0 0 0 0 0 0 0 0 0 0 0 0 0 0 0 0.1 0"/>
<feBlend mode="normal" in2="shape" result="effect1_innerShadow_221_203"/>
</filter>
<clipPath id="clip0_221_203">
<path d="M1.10275 25.5495C1.046 25.0999 1.36451 24.6893 1.81415 24.6326L188.256 1.10274C188.705 1.04599 189.116 1.3645 189.172 1.81414L191.125 17.2831C191.181 17.7327 190.863 18.1432 190.413 18.2L3.97192 41.7299C3.52227 41.7866 3.11176 41.4681 3.05501 41.0184L1.10275 25.5495Z" fill="white"/>
</clipPath>
</defs>
</svg>
