<svg width="91" height="49" viewBox="0 0 91 49" fill="none" xmlns="http://www.w3.org/2000/svg">
<g clip-path="url(#clip0_143_631)">
<path d="M44.2694 19.634C44.4546 20.0045 43.954 18.904 45.2773 21.8188C47.7709 27.3016 47.1109 32.9204 43.209 37.8454C42.5695 38.6549 41.9538 39.4814 41.3142 40.2875L41.0999 40.1922C41.2972 38.8964 41.4673 37.5971 41.668 36.3012C41.7122 36.0223 41.8211 35.757 41.8789 35.4781C42.5661 32.1517 41.9027 31.4987 38.4873 32.1211C38.2322 32.1687 37.9634 32.1279 37.3409 32.1279C38.0417 31.4647 38.5145 31.0225 38.9806 30.5702C39.9161 29.6654 40.9434 28.8321 41.7565 27.8322C43.5798 25.5942 43.4199 23.1793 41.4605 21.1012C40.5046 20.0876 39.6609 19.4141 38.5826 18.5298C37.4396 17.5945 37.0654 17.6115 35.9121 17.5061C35.5209 17.4686 33.752 17.3768 33.2281 17.3326C32.0239 17.234 31.9626 17.2884 30.772 17.1727V25.1962C28.8024 24.5704 26.581 21.5943 26.5708 19.2815C26.5606 16.4551 26.5095 16.4585 23.8697 15.632C22.424 15.1796 20.951 14.6796 19.6549 13.9212C17.6342 12.7341 17.7227 11.0641 19.8964 10.2614C21.8899 9.52678 24.016 9.0234 26.1251 8.78192C27.7546 8.59485 28.7207 7.95202 29.3501 6.5133C30.4046 4.10523 32.0749 2.357 34.7453 1.789C35.1229 1.70737 35.5243 1.72778 36.2795 1.67676C35.5618 3.89776 35.0821 6.02692 34.1738 7.95882C33.5887 9.20367 33.8472 9.86011 34.7895 10.5029C36.2863 11.5233 37.8648 12.428 39.3072 13.5198C40.1848 14.1831 40.5335 14.7529 41.3057 15.559C40.8737 15.2835 40.5648 15.537 40.1944 15.9075C39.6167 16.4852 42.3642 17.967 42.2319 18.8931C42.0466 20.1897 43.3117 21.3265 43.5284 20.9306C43.5284 18.5227 43.158 17.967 42.7875 17.0409C42.7875 17.0409 44.0841 19.2636 44.2694 19.634ZM35.2726 14.4075C37.6012 12.7806 34.7623 11.6185 32.66 11.6594C31.6803 11.6798 30.9217 11.6968 30.6359 10.4485C30.4318 9.5642 28.7105 9.33291 28.3329 10.1628C27.7104 11.5267 26.8463 11.1084 25.9619 10.7648C24.9141 10.3567 23.9956 10.2853 23.7201 11.6083C23.4513 12.8838 24.5365 12.9926 25.3938 13.2749C26.7068 13.7069 28.054 14.081 29.2956 14.6728C31.3775 15.6694 31.7489 15.6266 33.341 13.892C34.1738 13.1511 34.4523 14.6728 35.2794 14.4075H35.2726Z" fill="#474747"/>
<path d="M32.7655 22.2032C32.4627 20.8053 33.1091 20.4005 34.3337 20.4822C35.3305 20.5468 36.5007 20.2509 36.3544 21.9345C36.2557 23.0603 36.4667 24.2031 34.6705 24.2099C33.0853 24.2201 32.4593 23.6929 32.7655 22.2032Z" fill="#474747"/>
<path d="M13.268 44.165C12.6051 44.165 12.1694 44.094 11.9611 43.952C11.7622 43.8004 11.5633 43.4926 11.3645 43.0286L7.50054 33.9512L10.1002 21.4361C10.1854 21.0668 10.3038 20.7921 10.4553 20.6122C10.6068 20.4323 10.8531 20.3139 11.194 20.2571C11.5349 20.1908 12.0369 20.1576 12.6998 20.1576C13.5237 20.1576 14.1345 20.205 14.5323 20.2997C14.9395 20.3944 15.1431 20.6217 15.1431 20.9815C15.1431 21.2183 15.1195 21.4219 15.0721 21.5924C15.0342 21.7534 14.9774 21.9617 14.9016 22.2174L11.4213 33.9512L14.6459 42.1478C14.7785 42.4888 14.878 42.7682 14.9443 42.986C15.02 43.1943 15.0579 43.3743 15.0579 43.5258C15.0579 43.7531 14.9537 43.9188 14.7454 44.023C14.5465 44.1177 14.054 44.165 13.268 44.165ZM4.36111 44.165C3.48984 44.165 2.94529 44.113 2.72747 44.0088C2.51912 43.9046 2.40548 43.6347 2.38654 43.1991L1.7757 21.3367C1.76623 21.0052 1.81831 20.759 1.93196 20.598C2.05507 20.4275 2.3013 20.3139 2.67065 20.2571C3.04946 20.1908 3.61295 20.1576 4.36111 20.1576C5.10927 20.1576 5.66802 20.1908 6.03737 20.2571C6.41618 20.3139 6.66241 20.4275 6.77606 20.598C6.89917 20.759 6.956 21.0052 6.94652 21.3367L6.32148 43.1991C6.31201 43.6347 6.19836 43.9046 5.98055 44.0088C5.7722 44.113 5.23239 44.165 4.36111 44.165ZM22.8994 44.3355C21.9239 44.3355 21.0006 44.2124 20.1293 43.9662C19.258 43.7105 18.543 43.2843 17.9843 42.6877C17.435 42.091 17.1414 41.2766 17.1035 40.2443L16.7768 31.238C16.7389 30.2246 17.0088 29.4007 17.5865 28.7662C18.1737 28.1317 18.9408 27.6676 19.8878 27.3741C20.8348 27.071 21.834 26.9195 22.8852 26.9195C23.9364 26.9195 24.9355 27.071 25.8826 27.3741C26.8296 27.6676 27.592 28.1317 28.1696 28.7662C28.7568 29.4007 29.0315 30.2246 28.9936 31.238L28.6668 40.2301C28.629 41.2624 28.3306 42.0768 27.7719 42.6735C27.2226 43.2701 26.5171 43.6963 25.6553 43.952C24.7935 44.2077 23.8748 44.3355 22.8994 44.3355ZM22.8852 42.2899C23.5481 42.2899 24.0311 42.1478 24.3341 41.8637C24.6467 41.5702 24.7935 41.0635 24.7745 40.3437L24.4904 30.9965C24.4715 30.1915 24.3152 29.6801 24.0216 29.4623C23.7375 29.2445 23.3587 29.1355 22.8852 29.1355C22.4211 29.1355 22.0423 29.2445 21.7487 29.4623C21.4551 29.6801 21.2989 30.1915 21.2799 30.9965L20.9958 40.3579C20.9769 41.0777 21.119 41.5796 21.422 41.8637C21.7345 42.1478 22.2223 42.2899 22.8852 42.2899ZM34.4769 44.165C33.6814 44.165 33.1747 44.1177 32.9569 44.023C32.7486 43.9283 32.6397 43.7057 32.6302 43.3553L32.1756 28.1269C32.1662 27.7197 32.2893 27.4451 32.545 27.303C32.8007 27.161 33.4447 27.0899 34.4769 27.0899C35.5092 27.0899 36.1532 27.161 36.4089 27.303C36.6741 27.4451 36.7972 27.7197 36.7782 28.1269L36.3379 43.3553C36.3284 43.7057 36.2147 43.9283 35.9969 44.023C35.7791 44.1177 35.2724 44.165 34.4769 44.165ZM34.4769 24.8455C33.5583 24.8455 32.9759 24.7981 32.7296 24.7034C32.4929 24.6087 32.365 24.3861 32.3461 24.0357L32.1756 21.2657C32.1472 20.8584 32.2656 20.5838 32.5308 20.4417C32.7959 20.2997 33.4447 20.2286 34.4769 20.2286C35.5092 20.2286 36.1532 20.2997 36.4089 20.4417C36.6741 20.5838 36.7972 20.8584 36.7782 21.2657L36.622 24.0357C36.603 24.3861 36.4704 24.6087 36.2242 24.7034C35.9874 24.7981 35.405 24.8455 34.4769 24.8455ZM58.3735 44.3355C56.8488 44.3355 55.6129 44.1319 54.6659 43.7247C53.7188 43.3174 53.0275 42.7729 52.5919 42.091C52.1562 41.4092 51.9242 40.6563 51.8958 39.8323L51.498 24.7744C51.4602 23.3539 51.981 22.2032 53.0607 21.3225C54.1497 20.4417 55.9207 20.0014 58.3735 20.0014C60.8264 20.0014 62.5926 20.4417 63.6722 21.3225C64.7613 22.2032 65.2869 23.3539 65.249 24.7744L65.0786 31.6783C65.0691 32.256 64.8986 32.6206 64.5672 32.7722C64.2357 32.9142 63.6296 32.9853 62.7489 32.9853C61.8586 32.9853 61.2525 32.9142 60.9305 32.7722C60.618 32.6206 60.4523 32.256 60.4333 31.6783L60.2487 24.3341C60.2297 23.5007 60.064 22.9798 59.7515 22.7714C59.439 22.5536 58.9796 22.4447 58.3735 22.4447C57.7674 22.4447 57.3081 22.5536 56.9956 22.7714C56.6831 22.9798 56.5173 23.5007 56.4984 24.3341L56.0864 39.9602C56.0675 40.7557 56.2332 41.3002 56.5836 41.5938C56.9435 41.8779 57.5401 42.02 58.3735 42.02C59.2164 42.02 59.813 41.8779 60.1634 41.5938C60.5233 41.3002 60.689 40.7557 60.6606 39.9602L60.6038 38.2697C60.5849 37.692 60.7364 37.3322 61.0584 37.1901C61.3899 37.0386 61.9912 36.9628 62.8625 36.9628C63.7243 36.9628 64.2783 37.0386 64.5246 37.1901C64.7803 37.3322 64.8986 37.692 64.8797 38.2697L64.8371 39.8608C64.8181 40.6847 64.5861 41.4376 64.141 42.1194C63.7054 42.7918 63.0188 43.3316 62.0812 43.7389C61.1436 44.1366 59.9077 44.3355 58.3735 44.3355ZM72.0393 44.3355C70.7134 44.3355 69.7143 43.9946 69.0419 43.3127C68.3695 42.6214 68.0239 41.7832 68.0049 40.7983L67.9907 40.0312C67.9812 39.3209 68.1754 38.7243 68.5731 38.2413C68.9709 37.7583 69.4728 37.3558 70.0789 37.0338C70.6945 36.7118 71.3101 36.4514 71.9257 36.2525C72.5318 36.0537 73.1663 35.8832 73.8292 35.7411C74.5016 35.5991 75.1503 35.476 75.7754 35.3718L75.6475 30.6697C75.6191 29.6469 75.1077 29.1355 74.1133 29.1355C73.6303 29.1355 73.2326 29.2302 72.92 29.4197C72.617 29.6091 72.456 30.021 72.4371 30.6555L72.3376 33.8802C72.3281 34.2306 72.2003 34.4532 71.9541 34.5479C71.7078 34.6426 71.1207 34.6899 70.1926 34.6899C69.3308 34.6899 68.7815 34.6426 68.5447 34.5479C68.3174 34.4532 68.1943 34.2306 68.1754 33.8802L68.0617 30.8544C68.0333 30.0968 68.2227 29.467 68.63 28.9651C69.0372 28.4537 69.5628 28.0512 70.2068 27.7576C70.8508 27.4546 71.5279 27.2415 72.2382 27.1184C72.9485 26.9858 73.5877 26.9195 74.1559 26.9195C75.245 26.9195 76.2489 27.0805 77.1675 27.4025C78.0861 27.7245 78.8201 28.1932 79.3694 28.8088C79.9187 29.4149 80.1791 30.1536 80.1507 31.0249L79.7103 43.3553C79.7008 43.7057 79.5872 43.9283 79.3694 44.023C79.1516 44.1177 78.6449 44.165 77.8494 44.165C77.1202 44.165 76.6561 44.1177 76.4572 44.023C76.2678 43.9283 76.1637 43.7057 76.1447 43.3553L76.1305 42.8581C75.6191 43.2369 75.0177 43.5779 74.3264 43.8809C73.6351 44.184 72.8727 44.3355 72.0393 44.3355ZM71.883 40.3722C71.883 40.9498 72.0393 41.3618 72.3518 41.608C72.6643 41.8543 73.0432 41.9774 73.4883 41.9774C74.0376 41.9774 74.5111 41.8874 74.9088 41.7075C75.3066 41.5181 75.6475 41.305 75.9316 41.0682L75.8322 37.4174C74.8473 37.5973 74.0518 37.8199 73.4457 38.0851C72.9816 38.2934 72.6028 38.5302 72.3092 38.7953C72.0251 39.0605 71.883 39.4014 71.883 39.8181V40.3722ZM85.7477 44.165C84.9522 44.165 84.4455 44.1177 84.2277 44.023C84.0193 43.9283 83.9104 43.7057 83.9009 43.3553L83.4464 20.7116C83.4464 20.437 83.4937 20.2286 83.5884 20.0866C83.6831 19.9351 83.8962 19.8309 84.2277 19.7741C84.5591 19.7078 85.0658 19.6746 85.7477 19.6746C86.439 19.6746 86.9457 19.7078 87.2677 19.7741C87.5991 19.8309 87.8122 19.9351 87.9069 20.0866C88.0111 20.2286 88.0584 20.437 88.049 20.7116L87.6086 43.3553C87.5991 43.7057 87.4855 43.9283 87.2677 44.023C87.0499 44.1177 86.5432 44.165 85.7477 44.165Z" fill="#474747"/>
</g>
<defs>
<clipPath id="clip0_143_631">
<rect width="90.1702" height="48.1591" fill="white"/>
</clipPath>
</defs>
</svg>
